<svg version="1.1" id="Layer_1" xmlns="http://www.w3.org/2000/svg" xmlns:xlink="http://www.w3.org/1999/xlink" x="0px" y="0px"
	 width="100%" viewBox="0 0 900 900" enable-background="new 0 0 900 900" xml:space="preserve">
<path fill="#000000" opacity="1.000000" stroke="none" 
	d="
M499.000000,901.000000 
	C332.666656,901.000000 166.833328,901.000000 1.000000,901.000000 
	C1.000000,601.000000 1.000000,301.000000 1.000000,1.000000 
	C301.000000,1.000000 601.000000,1.000000 901.000000,1.000000 
	C901.000000,301.000000 901.000000,601.000000 901.000000,901.000000 
	C767.166687,901.000000 633.333313,901.000000 499.000000,901.000000 
M750.573242,28.997614 
	C737.479248,34.429413 723.820679,38.818546 711.421326,45.533054 
	C691.963928,56.069691 675.642578,71.128189 659.520203,86.130432 
	C650.431702,94.587440 642.025696,103.805405 633.626404,112.968582 
	C622.739624,124.845528 612.048523,136.907730 601.494202,149.081726 
	C592.927612,158.962906 584.409912,168.910477 576.368164,179.216934 
	C564.975830,193.817566 553.827332,208.620377 542.960510,223.616364 
	C526.393738,246.478165 509.696442,269.267822 493.890930,292.653381 
	C471.633209,325.585632 450.006714,358.948212 428.380585,392.302002 
	C418.519531,407.510620 409.175568,423.060608 399.832336,438.597260 
	C389.583801,455.639374 379.535919,472.803528 369.531647,489.990753 
	C360.496307,505.513397 351.585236,521.109192 342.721771,536.730774 
	C337.679779,545.617249 332.707825,554.548889 327.945007,563.586975 
	C320.538971,577.640869 312.935974,591.614319 306.197144,605.987915 
	C301.981812,614.979004 301.852844,615.885376 292.178741,615.989868 
	C277.494934,616.148499 264.562439,610.820251 252.518951,602.976746 
	C238.263474,593.692688 225.552216,582.612061 214.871780,569.339111 
	C206.279572,558.661316 197.579651,548.039612 189.583908,536.921021 
	C181.951172,526.307312 175.166626,515.083618 167.650558,503.579010 
	C115.679024,538.219482 63.655170,572.894836 11.580646,607.603943 
	C18.684925,615.927307 25.217125,623.690063 31.871077,631.346985 
	C39.295143,639.890198 47.030991,648.169678 54.274746,656.860962 
	C69.654739,675.314270 84.857864,693.916016 100.030449,712.540894 
	C112.600731,727.971313 125.300819,743.308472 137.433945,759.078918 
	C149.808090,775.162720 161.575638,791.713623 173.581711,808.079895 
	C189.918472,830.349548 205.187119,853.302917 217.472397,878.098511 
	C219.033051,881.248413 220.820663,882.080200 224.140701,882.072571 
	C270.639954,881.965637 317.139526,882.000000 363.639038,882.000000 
	C365.295227,882.000000 366.951416,882.000000 368.808044,882.000000 
	C371.911865,873.499695 374.759399,865.081177 378.038300,856.834167 
	C389.267029,828.591980 400.268585,800.250000 412.095398,772.258179 
	C420.779633,751.704224 430.349182,731.508667 440.018097,711.390747 
	C451.126709,688.277344 462.481995,665.271423 474.272919,642.499878 
	C488.520203,614.984558 503.225433,587.703857 517.948853,560.438477 
	C526.865479,543.926208 535.987427,527.516846 545.390320,511.277283 
	C555.378113,494.027374 565.633423,476.925903 576.084045,459.951752 
	C591.697754,434.591278 607.147827,409.112457 623.475708,384.213989 
	C640.484009,358.277954 658.236633,332.819977 676.068604,307.437378 
	C689.955811,287.669830 703.952087,267.938202 718.827881,248.916290 
	C736.738464,226.013748 755.308838,203.603531 774.212036,181.509262 
	C786.752625,166.851532 800.078796,152.827713 813.608765,139.066223 
	C825.316284,127.158287 837.704224,115.908745 849.997620,104.592262 
	C855.403503,99.615990 861.542664,95.436234 866.948853,90.460251 
	C873.275879,84.636650 880.457214,79.164055 884.984619,72.079933 
	C895.139099,56.190983 890.131714,42.186687 875.964478,33.099430 
	C861.411133,23.764610 844.696472,20.460464 827.690857,20.184816 
	C813.356812,19.952473 798.922485,20.653357 784.671936,22.213823 
	C773.471313,23.440315 762.483459,26.608923 750.573242,28.997614 
z"/>
<path fill="#F2C500" opacity="1.000000" stroke="none" 
	d="
M750.987183,28.956211 
	C762.483459,26.608923 773.471313,23.440315 784.671936,22.213823 
	C798.922485,20.653357 813.356812,19.952473 827.690857,20.184816 
	C844.696472,20.460464 861.411133,23.764610 875.964478,33.099430 
	C890.131714,42.186687 895.139099,56.190983 884.984619,72.079933 
	C880.457214,79.164055 873.275879,84.636650 866.948853,90.460251 
	C861.542664,95.436234 855.403503,99.615990 849.997620,104.592262 
	C837.704224,115.908745 825.316284,127.158287 813.608765,139.066223 
	C800.078796,152.827713 786.752625,166.851532 774.212036,181.509262 
	C755.308838,203.603531 736.738464,226.013748 718.827881,248.916290 
	C703.952087,267.938202 689.955811,287.669830 676.068604,307.437378 
	C658.236633,332.819977 640.484009,358.277954 623.475708,384.213989 
	C607.147827,409.112457 591.697754,434.591278 576.084045,459.951752 
	C565.633423,476.925903 555.378113,494.027374 545.390320,511.277283 
	C535.987427,527.516846 526.865479,543.926208 517.948853,560.438477 
	C503.225433,587.703857 488.520203,614.984558 474.272919,642.499878 
	C462.481995,665.271423 451.126709,688.277344 440.018097,711.390747 
	C430.349182,731.508667 420.779633,751.704224 412.095398,772.258179 
	C400.268585,800.250000 389.267029,828.591980 378.038300,856.834167 
	C374.759399,865.081177 371.911865,873.499695 368.808044,882.000000 
	C366.951416,882.000000 365.295227,882.000000 363.639038,882.000000 
	C317.139526,882.000000 270.639954,881.965637 224.140701,882.072571 
	C220.820663,882.080200 219.033051,881.248413 217.472397,878.098511 
	C205.187119,853.302917 189.918472,830.349548 173.581711,808.079895 
	C161.575638,791.713623 149.808090,775.162720 137.433945,759.078918 
	C125.300819,743.308472 112.600731,727.971313 100.030449,712.540894 
	C84.857864,693.916016 69.654739,675.314270 54.274746,656.860962 
	C47.030991,648.169678 39.295143,639.890198 31.871077,631.346985 
	C25.217125,623.690063 18.684925,615.927307 11.580646,607.603943 
	C63.655170,572.894836 115.679024,538.219482 167.650558,503.579010 
	C175.166626,515.083618 181.951172,526.307312 189.583908,536.921021 
	C197.579651,548.039612 206.279572,558.661316 214.871780,569.339111 
	C225.552216,582.612061 238.263474,593.692688 252.518951,602.976746 
	C264.562439,610.820251 277.494934,616.148499 292.178741,615.989868 
	C301.852844,615.885376 301.981812,614.979004 306.197144,605.987915 
	C312.935974,591.614319 320.538971,577.640869 327.945007,563.586975 
	C332.707825,554.548889 337.679779,545.617249 342.721771,536.730774 
	C351.585236,521.109192 360.496307,505.513397 369.531647,489.990753 
	C379.535919,472.803528 389.583801,455.639374 399.832336,438.597260 
	C409.175568,423.060608 418.519531,407.510620 428.380585,392.302002 
	C450.006714,358.948212 471.633209,325.585632 493.890930,292.653381 
	C509.696442,269.267822 526.393738,246.478165 542.960510,223.616364 
	C553.827332,208.620377 564.975830,193.817566 576.368164,179.216934 
	C584.409912,168.910477 592.927612,158.962906 601.494202,149.081726 
	C612.048523,136.907730 622.739624,124.845528 633.626404,112.968582 
	C642.025696,103.805405 650.431702,94.587440 659.520203,86.130432 
	C675.642578,71.128189 691.963928,56.069691 711.421326,45.533054 
	C723.820679,38.818546 737.479248,34.429413 750.987183,28.956211 
z"/>
</svg>